<svg xmlns="http://www.w3.org/2000/svg" xmlns:xlink="http://www.w3.org/1999/xlink" fill="none" version="1.1" width="24" height="24" viewBox="0 0 24 24"><defs><clipPath id="master_svg0_165_7273"><rect x="0" y="0" width="24" height="24" rx="0"/></clipPath></defs><g clip-path="url(#master_svg0_165_7273)"><g><path d="M3.9369649072265624,11.81719C3.960404907226563,10.79297,4.171334907226562,9.79922,4.567434907226563,8.86406C4.972904907226562,7.90313,5.554154907226563,7.04297,6.294774907226563,6.3C7.035404907226562,5.55703,7.897904907226563,4.97578,8.858834907226562,4.57031C9.852584907226563,4.15078,10.907274907226563,3.9375,11.997114907226562,3.9375C13.086954907226563,3.9375,14.141654907226563,4.15078,15.133054907226562,4.57031C16.091254907226563,4.97495,16.961354907226564,5.56246,17.69475490722656,6.3C17.926854907226563,6.53203,18.144754907226563,6.77813,18.346354907226562,7.03594C18.346354907226562,7.03594,16.93535490722656,8.1375,16.93535490722656,8.1375C16.907454907226562,8.159099999999999,16.886254907226565,8.188130000000001,16.874054907226565,8.22127C16.86195490722656,8.25441,16.85935490722656,8.2903,16.866754907226564,8.32483C16.874054907226565,8.35935,16.89105490722656,8.39109,16.915554907226564,8.416419999999999C16.940154907226564,8.44174,16.971454907226562,8.45961,17.00575490722656,8.467970000000001C17.00575490722656,8.467970000000001,21.123654907226562,9.47578,21.123654907226562,9.47578C21.240854907226563,9.503910000000001,21.35575490722656,9.41484,21.35575490722656,9.29531C21.35575490722656,9.29531,21.374454907226564,5.05547,21.374454907226564,5.05547C21.374454907226564,4.89844,21.193954907226562,4.8093699999999995,21.07215490722656,4.90781C21.07215490722656,4.90781,19.750254907226562,5.941409999999999,19.750254907226562,5.941409999999999C17.947854907226564,3.63516,15.144754907226563,2.15625,11.994774907226562,2.15625C6.625244907226563,2.15625,2.2564949072265623,6.45937,2.1557135150265627,11.80781C2.1550879562265624,11.83283,2.1594755172265625,11.85771,2.1686178072265623,11.88101C2.1777601072265624,11.9043,2.1914720072265625,11.92552,2.2089457072265626,11.94344C2.2264194072265626,11.96135,2.2473014072265625,11.97558,2.2703609072265625,11.98529C2.2934209072265626,11.99501,2.3181909072265627,12.00001,2.3432139072265623,12C2.3432139072265623,12,3.7494649072265624,12,3.7494649072265624,12C3.8525849072265625,12,3.9346149072265626,11.91797,3.9369649072265624,11.81719ZM21.655754907226562,12C21.655754907226562,12,20.249454907226564,12,20.249454907226564,12C20.146354907226563,12,20.064354907226562,12.08203,20.061954907226564,12.18285C20.038554907226562,13.20705,19.827554907226563,14.20075,19.431454907226563,15.13595C19.026054907226563,16.09685,18.444754907226564,16.95935,17.704154907226563,17.700049999999997C16.956654907226564,18.45065,16.06785490722656,19.04585,15.089154907226563,19.45135C14.110454907226563,19.85685,13.061154907226562,20.06455,12.001804907226562,20.06245C10.942794907226563,20.06445,9.893874907226563,19.85675,8.915554907226563,19.45125C7.937244907226562,19.04575,7.048904907226563,18.45055,6.301804907226562,17.700049999999997C6.069774907226563,17.467950000000002,5.851804907226562,17.22185,5.650244907226563,16.96405C5.650244907226563,16.96405,7.061184907226562,15.86245,7.061184907226562,15.86245C7.0890949072265625,15.84095,7.110354907226562,15.81185,7.1225049072265625,15.77875C7.134644907226562,15.74555,7.137194907226562,15.70965,7.129854907226562,15.67515C7.1225049072265625,15.64065,7.1055649072265625,15.60895,7.080984907226562,15.58355C7.056394907226562,15.55825,7.025154907226563,15.54035,6.9908649072265625,15.53205C6.9908649072265625,15.53205,2.8729009072265628,14.52425,2.8729009072265628,14.52425C2.7557139072265624,14.49605,2.6408699072265627,14.58515,2.6408699072265627,14.70465C2.6408699072265627,14.70465,2.6244639072265623,18.94685,2.6244639072265623,18.94685C2.6244639072265623,19.10395,2.8049319072265626,19.19295,2.9268069072265623,19.09455C2.9268069072265623,19.09455,4.248684907226563,18.06095,4.248684907226563,18.06095C6.051024907226562,20.36485,8.854154907226562,21.84375,12.004154907226562,21.84375C17.37605490722656,21.84375,21.742454907226563,17.538249999999998,21.843254907226562,12.19215C21.84385490722656,12.16715,21.839454907226564,12.14229,21.830354907226564,12.11899C21.821154907226564,12.0957,21.807454907226564,12.07447,21.789954907226562,12.05656C21.772554907226564,12.03865,21.751654907226563,12.02442,21.728554907226563,12.01471C21.705554907226563,12.00499,21.68075490722656,11.99999,21.655754907226562,12C21.655754907226562,12,21.655754907226562,12,21.655754907226562,12Z" fill="#000000" fill-opacity="0.44999998807907104"/></g></g></svg>